HIERARCHY
ROOT Hips
{
 OFFSET 0.000000 0.000000 0.000000
 CHANNELS 6 Xposition Yposition Zposition Yrotation Xrotation Zrotation
 JOINT Chest
 {
  OFFSET 0.000000 9.585900 0.002600
  CHANNELS 3 Yrotation Xrotation Zrotation
  JOINT Chest2
  {
   OFFSET 0.000000 9.601200 -0.005300
   CHANNELS 3 Yrotation Xrotation Zrotation
   JOINT Chest3
   {
    OFFSET 0.000000 9.561800 0.000000
    CHANNELS 3 Yrotation Xrotation Zrotation
    JOINT Chest4
    {
     OFFSET 0.000000 9.552100 0.000000
     CHANNELS 3 Yrotation Xrotation Zrotation
     JOINT Neck
     {
      OFFSET 0.000000 14.453000 0.000000
      CHANNELS 3 Yrotation Xrotation Zrotation
      JOINT Head
      {
       OFFSET 0.000000 8.936500 -0.011300
       CHANNELS 3 Yrotation Xrotation Zrotation
       End Site
       {
        OFFSET 0.000000 17.073600 -0.006000
       }
      }
     }
     JOINT RightCollar
     {
      OFFSET -2.921100 9.558500 0.000000
      CHANNELS 3 Yrotation Xrotation Zrotation
      JOINT RightShoulder
      {
       OFFSET -13.519700 0.000000 0.000000
       CHANNELS 3 Yrotation Xrotation Zrotation
       JOINT RightElbow
       {
        OFFSET 0.000000 -29.696600 0.000000
        CHANNELS 3 Yrotation Xrotation Zrotation
        JOINT RightWrist
        {
         OFFSET 0.000000 -24.004700 0.000000
         CHANNELS 3 Yrotation Xrotation Zrotation
         End Site
         {
          OFFSET 0.000000 -17.728500 0.000000
         }
        }
       }
      }
     }
     JOINT LeftCollar
     {
      OFFSET 2.921100 9.558500 0.000000
      CHANNELS 3 Yrotation Xrotation Zrotation
      JOINT LeftShoulder
      {
       OFFSET 13.519700 0.000000 0.000000
       CHANNELS 3 Yrotation Xrotation Zrotation
       JOINT LeftElbow
       {
        OFFSET 0.000000 -29.696600 0.000000
        CHANNELS 3 Yrotation Xrotation Zrotation
        JOINT LeftWrist
        {
         OFFSET 0.000000 -24.004700 0.000000
         CHANNELS 3 Yrotation Xrotation Zrotation
         End Site
         {
          OFFSET 0.000000 -17.728500 0.000000
         }
        }
       }
      }
     }
    }
   }
  }
 }
 JOINT RightHip
 {
  OFFSET -7.771700 -0.012900 -0.001300
  CHANNELS 3 Yrotation Xrotation Zrotation
  JOINT RightKnee
  {
   OFFSET 0.000000 -40.869800 0.001200
   CHANNELS 3 Yrotation Xrotation Zrotation
   JOINT RightAnkle
   {
    OFFSET 0.000000 -39.717900 0.002100
    CHANNELS 3 Yrotation Xrotation Zrotation
    JOINT RightToe
    {
     OFFSET 0.000000 -4.965400 11.033500
     CHANNELS 3 Yrotation Xrotation Zrotation
     End Site
     {
      OFFSET 0.000000 -1.423100 5.872300
     }
    }
   }
  }
 }
 JOINT LeftHip
 {
  OFFSET 7.771700 -0.012900 -0.001300
  CHANNELS 3 Yrotation Xrotation Zrotation
  JOINT LeftKnee
  {
   OFFSET 0.000000 -40.869800 0.001200
   CHANNELS 3 Yrotation Xrotation Zrotation
   JOINT LeftAnkle
   {
    OFFSET 0.000000 -39.717900 0.002100
    CHANNELS 3 Yrotation Xrotation Zrotation
    JOINT LeftToe
    {
     OFFSET 0.000000 -4.965400 11.033500
     CHANNELS 3 Yrotation Xrotation Zrotation
     End Site
     {
      OFFSET 0.000000 -1.423100 5.872300
     }
    }
   }
  }
 }
}
MOTION
Frames: 15
Frame Time: 0.008333
0.000000 85.388000 0.000000 0.000000 -5.767877 0.000000 0.000000 11.653817 0.000000 0.000000 -5.885947 0.000000 0.000000 -0.000000 0.000000 0.000000 -0.000000 0.000000 0.000000 12.528835 0.000000 0.000000 0.711642 0.000000 0.000000 -0.000000 0.000000 0.000000 0.000000 -90.000000 0.000000 -2.309062 0.000000 0.000000 2.309062 0.000000 0.000000 -0.000000 0.000000 0.000000 -0.000000 90.000000 0.000000 -2.309062 0.000000 0.000000 2.309062 0.000000 0.000000 8.520406 0.000000 0.000000 1.905762 0.000000 -0.000000 -4.658285 0.000000 0.000000 -0.000000 0.000000 0.000000 8.520406 0.000000 0.000000 1.905762 0.000000 -0.000000 -4.658285 0.000000 0.000000 -0.000000 0.000000
-51.770818 46.600841 6.549757 177.613652 -29.696295 -2.274078 0.076926 17.444389 1.360956 -0.013773 1.858608 0.162524 -0.043428 3.098637 0.280024 -0.067117 15.260392 1.383925 -4.905137 19.515759 0.772946 -9.192971 0.645137 2.907688 -0.477523 0.580699 -1.768470 3.295921 -3.589287 -15.100923 -49.869661 -64.303927 96.608559 1.207177 7.755612 -13.456554 -1.046151 -1.588905 2.418547 -2.876798 0.142458 12.730795 69.095223 -74.667832 -106.581724 -5.045862 14.387022 0.882270 -1.417960 -57.371260 -9.980211 -172.592045 80.144233 -163.037162 -7.064198 -13.006293 -5.860417 -0.013848 -0.346703 0.205316 1.458569 -58.998873 8.701510 -109.069942 82.573766 -113.594433 4.460593 -5.977935 5.511372 0.107722 0.210042 0.039724
-51.774267 46.614615 6.561575 177.648849 -29.617389 -2.314537 0.115849 17.344557 1.377752 -0.047761 1.860020 0.177997 -0.040548 3.081136 0.279986 -0.017313 15.153351 1.386042 -5.294000 19.692676 1.100468 -9.991705 1.029719 3.607033 -0.660529 0.409425 -1.876354 2.941693 -3.273104 -15.021047 -50.599111 -65.048991 97.130763 1.871117 7.696322 -12.690220 -1.125222 -1.849080 2.608510 -2.435270 0.537337 12.510859 70.000156 -74.935712 -107.356255 -5.542939 14.272053 -0.017618 -1.408929 -57.419611 -9.974644 -172.805144 80.202541 -163.225622 -7.105242 -12.963717 -5.886314 -0.027516 -0.334621 0.202162 1.337562 -59.065459 8.763051 -108.901189 82.599389 -113.427847 4.454198 -5.949092 5.484574 0.109679 0.210842 0.044781
-51.778945 46.630703 6.573927 177.680788 -29.537585 -2.357332 0.125719 17.252673 1.401699 -0.052556 1.853811 0.181532 -0.006365 3.017943 0.270498 -0.003775 15.105553 1.410556 -5.682426 19.859919 1.410094 -10.782023 1.400873 4.271029 -0.838463 0.221636 -2.007240 2.549072 -2.944094 -14.958733 -51.318358 -65.584022 97.680211 2.451991 7.474737 -11.962409 -1.189464 -2.106071 2.829854 -1.961614 0.916943 12.279508 70.850855 -75.120649 -108.080624 -5.898478 14.057790 -0.810124 -1.444487 -57.475651 -9.907847 -172.976678 80.261952 -163.413330 -7.167352 -12.915416 -5.878608 -0.054046 -0.342301 0.224187 1.162486 -59.125298 8.863597 -108.655641 82.624619 -113.198952 4.467078 -5.918551 5.440923 0.120395 0.205817 0.051793
-51.784346 46.649112 6.584608 177.688927 -29.473955 -2.395546 0.156497 17.170920 1.435581 -0.040735 1.836173 0.175646 0.000630 2.978438 0.277613 0.010464 15.064679 1.440310 -6.064308 20.019840 1.690265 -11.549491 1.760605 4.877001 -1.003485 0.025274 -2.166114 2.140876 -2.607571 -14.903818 -51.956979 -65.818330 98.177148 2.826972 7.100152 -11.322473 -1.244604 -2.355571 3.069128 -1.469279 1.289995 12.037253 71.540428 -75.159385 -108.646172 -6.053549 13.799269 -1.431216 -1.442237 -57.518634 -9.836185 -173.118054 80.319010 -163.570430 -7.241444 -12.860345 -5.847770 -0.063554 -0.334821 0.203509 1.016450 -59.173600 8.973042 -108.503288 82.638748 -113.071564 4.483531 -5.890909 5.423416 0.119732 0.189890 0.050904
-51.789740 46.668127 6.594695 177.687769 -29.419607 -2.441820 0.195165 17.093557 1.484241 -0.033569 1.825978 0.175370 -0.009421 2.968914 0.286085 0.032700 15.004102 1.477004 -6.429786 20.175997 1.931620 -12.273479 2.112420 5.405275 -1.148742 -0.173705 -2.355614 1.723613 -2.265426 -14.839241 -52.461619 -65.711464 98.570767 2.937720 6.602299 -10.821413 -1.292965 -2.590370 3.309900 -0.963244 1.656450 11.783587 71.902902 -74.976768 -108.889099 -6.000300 13.534323 -1.825482 -1.402702 -57.551703 -9.772821 -173.215912 80.372088 -163.667083 -7.314346 -12.799888 -5.806983 -0.017634 -0.314306 0.148243 0.905479 -59.218951 9.078326 -108.403572 82.645692 -112.981632 4.492538 -5.865394 5.415151 0.127593 0.174689 0.051968
-51.797625 46.686654 6.604154 177.685632 -29.373567 -2.486290 0.214914 17.034486 1.532040 -0.018181 1.805289 0.174163 -0.024496 2.988361 0.289838 0.049326 14.929367 1.531016 -6.767625 20.330601 2.131344 -12.933319 2.457590 5.847577 -1.271641 -0.370726 -2.571240 1.296644 -1.923393 -14.752696 -52.811875 -65.273152 98.846779 2.778629 6.017248 -10.491176 -1.331218 -2.799477 3.541794 -0.443304 2.007309 11.518560 71.884072 -74.528975 -108.773852 -5.781871 13.259434 -1.970329 -1.408571 -57.580363 -9.692359 -173.352755 80.425962 -163.819308 -7.363314 -12.741145 -5.778873 -0.028104 -0.316075 0.134803 0.798433 -59.256322 9.178518 -108.314090 82.653025 -112.900274 4.498909 -5.843031 5.403275 0.134759 0.162009 0.056259
-51.805281 46.702534 6.616210 177.679398 -29.314370 -2.545403 0.237196 16.970949 1.596975 -0.015407 1.782777 0.178353 -0.022519 2.970994 0.297065 0.046363 14.932355 1.551519 -7.057215 20.453559 2.339836 -13.513137 2.797083 6.202687 -1.379425 -0.593363 -2.758573 0.870894 -1.592020 -14.642670 -53.015071 -64.546184 99.002541 2.378869 5.376964 -10.340249 -1.362801 -3.009828 3.803400 0.089369 2.335993 11.252861 71.587289 -73.821412 -108.418051 -5.433102 12.954669 -1.875222 -1.430170 -57.622660 -9.583552 -173.364863 80.478521 -163.840700 -7.404609 -12.681989 -5.760627 -0.039457 -0.316975 0.129667 0.582497 -59.291609 9.340738 -108.099562 82.659969 -112.701253 4.565378 -5.853054 5.356306 0.124535 0.186752 0.057567
-51.820357 46.719458 6.622527 177.673933 -29.294164 -2.574384 0.241880 16.933706 1.636445 -0.015725 1.773393 0.183749 -0.047450 2.921076 0.342817 0.034720 14.918960 1.593649 -7.324831 20.625398 2.438363 -14.004500 3.128428 6.475198 -1.463911 -0.740876 -3.012244 0.463183 -1.282774 -14.514496 -53.116704 -63.597972 99.067003 1.791790 4.702256 -10.360450 -1.367197 -3.128019 3.987203 0.631354 2.636975 11.008865 71.127117 -72.889043 -107.931641 -4.955251 12.584828 -1.577684 -1.338104 -57.627128 -9.573716 -173.214635 80.510998 -163.684652 -7.449553 -12.631252 -5.736832 -0.029442 -0.317615 0.140579 0.492007 -59.295997 9.399640 -107.993746 82.672518 -112.595306 4.578188 -5.840789 5.342881 0.137142 0.181582 0.051099
-51.836594 46.734799 6.628109 177.679015 -29.278728 -2.616677 0.231842 16.906041 1.692054 -0.018420 1.764516 0.189426 -0.065414 2.909739 0.359801 0.000597 14.869538 1.669807 -7.543366 20.792923 2.499386 -14.406703 3.448517 6.677383 -1.529264 -0.863755 -3.265636 0.084310 -1.007587 -14.379549 -53.183361 -62.519927 99.087280 1.088708 4.008119 -10.519186 -1.347293 -3.213826 4.147656 1.173416 2.903446 10.810558 70.565723 -71.769837 -107.367068 -4.353059 12.107804 -1.118053 -1.306383 -57.625449 -9.536031 -173.021009 80.537767 -163.484405 -7.476057 -12.597302 -5.745481 -0.008130 -0.314174 0.159984 0.392688 -59.298802 9.457692 -107.934300 82.690171 -112.526761 4.599454 -5.836913 5.323169 0.142352 0.182417 0.049417
-51.847826 46.746309 6.637389 177.694120 -29.237776 -2.709384 0.171830 16.844476 1.814042 0.017450 1.767144 0.166844 -0.083321 2.898628 0.374274 -0.029271 14.836407 1.726331 -7.714698 20.944428 2.565594 -14.722214 3.758285 6.825597 -1.600643 -0.972726 -3.478373 -0.264830 -0.773347 -14.249057 -53.281440 -61.418721 99.105217 0.338678 3.302062 -10.777217 -1.328832 -3.287920 4.313269 1.705762 3.135345 10.675165 69.964091 -70.501230 -106.776117 -3.642461 11.501193 -0.512961 -1.374768 -57.643081 -9.400797 -172.787494 80.573012 -163.243455 -7.492498 -12.566700 -5.765538 0.004897 -0.306174 0.176857 0.223292 -59.334849 9.589733 -107.956295 82.710757 -112.525980 4.622565 -5.853695 5.301624 0.136197 0.202176 0.045645
-51.868692 46.757649 6.641261 177.694794 -29.225792 -2.749737 0.160665 16.828688 1.863280 -0.004947 1.752484 0.189613 -0.067386 2.902248 0.359761 -0.076037 14.784948 1.810619 -7.845183 21.094025 2.618926 -14.959790 4.058233 6.938891 -1.681864 -1.052217 -3.666059 -0.593297 -0.581005 -14.130354 -53.457979 -60.398215 99.152728 -0.403529 2.587225 -11.091617 -1.312630 -3.341122 4.458631 2.231856 3.332171 10.613570 69.366639 -69.127738 -106.211662 -2.833721 10.764884 0.217518 -1.354692 -57.639472 -9.356979 -172.526359 80.597145 -162.998197 -7.499010 -12.542132 -5.731702 0.009466 -0.293406 0.159253 0.162900 -59.342479 9.611568 -108.033921 82.740145 -112.572424 4.632069 -5.855810 5.272432 0.141011 0.203051 0.050987
-51.889453 46.766838 6.644165 177.692277 -29.214186 -2.800941 0.154585 16.814210 1.923850 -0.030527 1.740310 0.209144 -0.089971 2.877728 0.381110 -0.088407 14.756591 1.859198 -7.941309 21.239259 2.666517 -15.133689 4.345287 7.032536 -1.773680 -1.103687 -3.820991 -0.917530 -0.432206 -14.028661 -53.737435 -59.533387 99.252622 -1.083929 1.872487 -11.427250 -1.293920 -3.376551 4.579684 2.755674 3.483980 10.632977 68.790956 -67.694384 -105.708957 -1.943354 9.923987 1.037584 -1.288203 -57.628785 -9.319372 -171.798904 80.603755 -162.288245 -7.440629 -12.521038 -5.662544 -0.002899 -0.269155 0.134692 0.089579 -59.353435 9.661141 -108.134326 82.759795 -112.640147 4.628430 -5.862340 5.249428 0.164225 0.205796 0.050545
-51.908357 46.771625 6.650143 177.668098 -29.175985 -2.863403 0.088741 16.750712 2.016509 0.018906 1.751171 0.194939 -0.111655 2.849442 0.400885 -0.097957 14.732235 1.906050 -8.010662 21.376534 2.710235 -15.258682 4.613667 7.112697 -1.870969 -1.127551 -3.940952 -1.255098 -0.328419 -13.945607 -54.140513 -58.859117 99.429307 -1.660476 1.170120 -11.779117 -1.266246 -3.398936 4.674688 3.273504 3.583673 10.732082 68.246807 -66.234145 -105.277301 -0.997083 9.014120 1.925068 -1.365771 -57.664496 -9.170627 -171.236315 80.608968 -161.777479 -7.356592 -12.483043 -5.659003 -0.046478 -0.264389 0.131727 0.014475 -59.400795 9.723400 -108.351332 82.786696 -112.812696 4.672813 -5.882611 5.235630 0.157051 0.215840 0.039637
-51.933829 46.775915 6.650839 177.664695 -29.163168 -2.902884 0.049747 16.715598 2.067832 0.011415 1.749473 0.197400 -0.111598 2.834856 0.414840 -0.117612 14.705144 1.960453 -8.059248 21.502463 2.749215 -15.345764 4.857897 7.180058 -1.972237 -1.126872 -4.025182 -1.616460 -0.267804 -13.883654 -54.679498 -58.385563 99.698372 -2.126541 0.482390 -12.150652 -1.232968 -3.417314 4.746746 3.785418 3.628731 10.905685 67.740835 -64.768466 -104.904927 -0.020818 8.061744 2.879252 -1.342615 -57.659326 -9.134320 -170.768682 80.617329 -161.317463 -7.335191 -12.486588 -5.694492 -0.041767 -0.235286 0.186531 -0.005603 -59.425280 9.695924 -108.635608 82.833875 -113.052916 4.720812 -5.885333 5.227640 0.131542 0.208746 0.036434
